 <!DOCTYPE svg PUBLIC "-//W3C//DTD SVG 1.1//EN" "http://www.w3.org/Graphics/SVG/1.1/DTD/svg11.dtd">
<svg id="e271f326-ebcf-46d0-8550-3ab5d226df56" data-name="fdc678d4-30b9-40a1-aa99-23d9a3747e63" xmlns="http://www.w3.org/2000/svg" width="865.76" height="682.89" viewBox="0 0 865.76 682.89">
<defs>
<style xmlns="http://www.w3.org/1999/xhtml">*, ::after, ::before { box-sizing: border-box; }
img, svg { vertical-align: middle; }
</style>
<style xmlns="http://www.w3.org/1999/xhtml">*, body, html { -webkit-font-smoothing: antialiased; }
img, svg { max-width: 100%; }
</style>
</defs>
<path d="M442.77,551.55v-1c2,0,4,0,6-.08l0,1C446.79,551.52,444.77,551.55,442.77,551.55Zm-6-.06c-2,0-4-.12-6-.21l.05-1c2,.09,4,.16,6,.21Zm18-.24-.05-1c2-.1,4-.22,6-.37l.08,1C458.82,551,456.8,551.15,454.79,551.25Zm-30-.32c-2-.15-4-.31-6-.5l.1-1c2,.19,4,.36,6,.5Zm42-.56-.1-1c2-.2,4-.42,5.95-.66l.12,1C470.79,550,468.78,550.17,466.78,550.37Zm-54-.58c-2-.24-4-.51-6-.79l.14-1c1.95.28,3.95.55,5.94.78Zm65.92-.88-.15-1c2-.28,3.95-.6,5.91-.94l.17,1C482.67,548.3,480.67,548.62,478.71,548.91Zm-77.82-.84c-2-.33-3.95-.7-5.91-1.08l.19-1c2,.38,3.94.74,5.89,1.07Zm89.66-1.21-.19-1c2-.38,3.94-.8,5.86-1.23l.22,1C494.51,546.06,492.53,546.47,490.55,546.86Zm-101.46-1.09c-1.95-.43-3.92-.89-5.85-1.36l.24-1c1.92.47,3.88.93,5.83,1.35Zm113.2-1.52-.25-1c1.94-.49,3.89-1,5.79-1.52l.27,1C506.18,543.25,504.23,543.76,502.29,544.25ZM377.42,542.9c-1.93-.53-3.88-1.08-5.78-1.65l.28-1c1.9.57,3.84,1.12,5.76,1.64Zm136.46-1.84-.29-1c1.89-.57,3.81-1.18,5.71-1.8l.31,1C517.71,539.88,515.78,540.49,513.88,541.06Zm-148-1.6c-1.9-.62-3.82-1.27-5.71-1.94l.33-.95c1.89.67,3.8,1.32,5.69,1.94Zm159.39-2.16-.33-.94c1.85-.66,3.74-1.36,5.61-2.08l.36.94C529.05,535.94,527.16,536.64,525.29,537.3Zm-170.76-1.86c-1.88-.71-3.76-1.46-5.61-2.22l.38-.92c1.84.75,3.72,1.49,5.58,2.21Zm182-2.45-.38-.92c1.83-.76,3.67-1.54,5.48-2.34l.41.91C540.21,531.44,538.36,532.24,536.52,533Zm-193.15-2.12c-1.83-.8-3.67-1.64-5.49-2.49l.43-.9c1.8.84,3.64,1.68,5.46,2.47Zm204.11-2.71-.43-.91c1.81-.85,3.62-1.73,5.37-2.61l.45.9C551.11,526.42,549.3,527.3,547.48,528.16Zm-215-2.4c-1.78-.88-3.58-1.81-5.36-2.75l.47-.89c1.77.94,3.56,1.87,5.33,2.75Zm225.74-3-.47-.88c1.75-.94,3.52-1.9,5.24-2.87l.49.87C561.73,520.88,560,521.85,558.2,522.79Zm-236.39-2.66c-1.76-1-3.52-2-5.21-3l.51-.86c1.69,1,3.43,2,5.19,3Zm246.84-3.23-.51-.86c1.73-1,3.44-2.08,5.09-3.12l.53.85C572.11,514.81,570.38,515.87,568.65,516.9ZM311.46,514c-1.71-1.07-3.41-2.16-5.06-3.26l.55-.83c1.64,1.09,3.34,2.18,5,3.25Zm267.34-3.47-.55-.83c1.67-1.11,3.33-2.24,4.94-3.37l.57.82C582.15,508.26,580.48,509.4,578.8,510.51Zm-277.38-3.17c-1.65-1.14-3.29-2.32-4.89-3.5l.59-.8c1.59,1.17,3.23,2.34,4.87,3.48Zm287.22-3.71-.59-.8c1.6-1.18,3.21-2.4,4.77-3.6l.61.79C591.86,501.23,590.25,502.45,588.64,503.63Zm-296.92-3.4c-1.6-1.23-3.18-2.49-4.72-3.74l.63-.77c1.53,1.24,3.11,2.49,4.7,3.71Zm306.42-4-.64-.77c1.56-1.27,3.11-2.56,4.6-3.83l.65.76C601.25,493.72,599.7,495,598.14,496.28Zm-315.76-3.63c-1.53-1.31-3.06-2.64-4.53-4l.67-.74c1.46,1.31,3,2.64,4.51,3.94Zm324.89-4.17-.67-.74c1.49-1.34,3-2.71,4.41-4.06l.68.73C610.26,485.77,608.77,487.13,607.27,488.48Zm-333.85-3.85c-1.46-1.37-2.92-2.77-4.33-4.17l.7-.71c1.41,1.39,2.86,2.79,4.31,4.15ZM616,480.24l-.71-.71c1.42-1.4,2.84-2.84,4.21-4.26l.72.69C618.86,477.39,617.44,478.83,616,480.24Zm-351.16-4.05c-1.39-1.44-2.78-2.91-4.12-4.37l.73-.68c1.34,1.46,2.72,2.92,4.11,4.36Zm359.5-4.61-.74-.67c1.36-1.48,2.7-3,4-4.46l.75.66C627.07,468.59,625.72,470.1,624.36,471.58Zm-367.64-4.23c-1.32-1.5-2.63-3-3.9-4.56l.76-.65c1.27,1.53,2.58,3.06,3.89,4.55Zm375.56-4.82-.77-.64c1.27-1.53,2.54-3.1,3.77-4.65l.79.63C634.83,459.42,633.56,461,632.28,462.53ZM249,458.13c-1.23-1.55-2.47-3.15-3.68-4.75l.8-.6c1.2,1.59,2.44,3.18,3.67,4.73Zm390.73-5-.8-.61c1.2-1.59,2.39-3.22,3.54-4.82l.82.58C642.15,449.87,641,451.5,639.75,453.11Zm-398-4.56c-1.16-1.62-2.32-3.27-3.44-4.92l.83-.56c1.11,1.64,2.27,3.28,3.43,4.9Zm405-5.22-.83-.57c1.12-1.64,2.23-3.32,3.31-5l.84.55C649,440,647.87,441.68,646.75,443.33ZM235,438.64c-1.09-1.68-2.17-3.39-3.2-5.08l.85-.52c1,1.68,2.1,3.38,3.19,5Zm418.26-5.43-.86-.52c1-1.7,2.07-3.43,3.07-5.16l.86.5C655.35,429.77,654.32,431.51,653.28,433.21Zm-424.54-4.8c-1-1.73-2-3.49-2.94-5.22l.87-.49c1,1.73,1.94,3.48,2.94,5.21Zm430.56-5.63-.88-.48c1-1.72,1.9-3.51,2.82-5.29l.88.45C661.2,419.26,660.25,421.05,659.3,422.78ZM223,417.89c-.92-1.77-1.82-3.57-2.69-5.35l.9-.44c.86,1.77,1.76,3.57,2.68,5.34Zm441.83-5.82-.9-.43c.88-1.82,1.74-3.65,2.55-5.44l.91.42C666.56,408.41,665.7,410.25,664.81,412.07Zm-447.08-4.95c-.82-1.82-1.64-3.66-2.42-5.48l.92-.4c.78,1.82,1.59,3.65,2.41,5.46Zm452.07-6-.92-.39c.78-1.84,1.55-3.71,2.28-5.55l.93.36C671.35,397.37,670.58,399.25,669.8,401.1ZM213,396.1c-.74-1.85-1.46-3.74-2.15-5.61l.93-.35c.69,1.86,1.42,3.74,2.15,5.59Zm461.22-6.21-.94-.34c.69-1.88,1.36-3.79,2-5.67l1,.32C675.61,386.09,674.93,388,674.24,389.89Zm-465.4-5.06c-.64-1.89-1.28-3.81-1.88-5.71l1-.3c.59,1.89,1.22,3.8,1.87,5.69Zm469.28-6.36-1-.3c.59-1.9,1.17-3.83,1.71-5.73l1,.27C679.3,374.62,678.72,376.56,678.12,378.47Zm-472.9-5.1c-.55-1.93-1.09-3.88-1.6-5.8l1-.25c.5,1.91,1,3.85,1.59,5.77Zm476.21-6.46-1-.25c.5-1.93,1-3.89,1.44-5.81l1,.23C682.42,363,681.93,365,681.43,366.91Zm-479.26-5.17c-.46-1.94-.91-3.91-1.32-5.86l1-.21c.41,1.94.85,3.91,1.31,5.84Zm482-6.53-1-.21c.4-1.95.79-3.92,1.14-5.87l1,.18C685,351.26,684.57,353.25,684.17,355.21ZM199.68,350c-.36-2-.7-4-1-5.92l1-.16c.31,2,.66,4,1,5.9Zm486.65-6.6-1-.15c.31-2,.6-3.94.86-5.93l1,.13C686.93,339.43,686.64,341.43,686.33,343.38Zm-488.55-5.27c-.27-2-.52-4-.74-6l1-.11c.22,2,.46,4,.73,5.94Zm490.13-6.64-1-.11c.21-2,.4-4,.57-6l1,.08C688.32,327.49,688.12,329.5,687.91,331.47Zm-491.45-5.31c-.18-2-.33-4-.45-6l1-.06c.12,2,.27,4,.44,6Zm492.45-6.67-1-.06c.12-2,.21-4,.28-6l1,0C689.12,315.47,689,317.49,688.91,319.49Zm-493.2-5.32c-.08-2-.13-4-.16-6l1,0c0,2,.08,4,.16,6Zm493.62-6.69-1,0c0-.94,0-1.88,0-2.82s0-2.11,0-3.16l1,0c0,1.06,0,2.12,0,3.18S689.34,306.53,689.33,307.48Zm-492.79-5.31h-1c0-2,.07-4,.13-6l1,0C196.6,298.16,196.56,300.17,196.54,302.17Zm491.64-6.67c-.07-2-.17-4-.29-6l1-.06c.12,2,.22,4,.29,6ZM197,290.2l-1-.06c.11-2,.25-4,.42-6l1,.08C197.2,286.2,197.06,288.21,197,290.2Zm490.51-6.65c-.17-2-.37-4-.58-6l1-.11c.22,2,.41,4,.59,6Zm-489.53-5.28-1-.11c.21-2,.45-4,.71-6l1,.13C198.37,274.3,198.14,276.3,197.93,278.27Zm488.23-6.62c-.27-2-.56-4-.87-5.92l1-.16c.31,2,.6,4,.87,5.95ZM199.49,266.4l-1-.15c.31-2,.64-4,1-5.93l1,.18C200.13,262.45,199.79,264.43,199.49,266.4Zm484.79-6.57c-.37-2-.76-3.95-1.16-5.88l1-.2c.4,1.93.79,3.92,1.16,5.89Zm-482.66-5.21-1-.2c.4-1.95.84-3.93,1.29-5.87l1,.22C202.45,250.71,202,252.68,201.62,254.62Zm480.2-6.51c-.46-2-.94-3.91-1.44-5.81l1-.26c.5,1.92,1,3.88,1.44,5.84ZM204.33,243l-1-.25c.5-1.92,1-3.88,1.58-5.8l1,.27C205.35,239.1,204.82,241,204.33,243Zm474.46-6.43c-.55-1.93-1.13-3.86-1.72-5.74l.95-.3c.59,1.88,1.18,3.82,1.73,5.76Zm-471.18-5.09-1-.29c.6-1.92,1.23-3.85,1.87-5.74l.94.32C208.83,227.61,208.2,229.54,207.61,231.44ZM675.2,225.1c-.64-1.87-1.31-3.77-2-5.64l.94-.34c.69,1.88,1.37,3.78,2,5.66Zm-463.74-5-.94-.34c.69-1.89,1.42-3.79,2.15-5.64l.93.37C212.87,216.29,212.15,218.18,211.46,220.06Zm459.6-6.19c-.73-1.83-1.5-3.69-2.27-5.51l.92-.39c.78,1.83,1.54,3.69,2.28,5.53Zm-455.19-5-.92-.39c.78-1.85,1.59-3.71,2.41-5.52l.91.41C217.46,205.2,216.65,207.05,215.87,208.89Zm450.51-6c-.82-1.81-1.67-3.62-2.54-5.4l.9-.44c.87,1.79,1.73,3.61,2.55,5.42ZM220.81,198l-.9-.44c.87-1.8,1.77-3.61,2.69-5.39l.88.46C222.58,194.36,221.68,196.17,220.81,198Zm440.36-5.8c-.9-1.76-1.84-3.53-2.8-5.28l.88-.48c1,1.76,1.91,3.54,2.81,5.3Zm-434.88-4.88-.88-.48c1-1.75,1.94-3.52,2.94-5.25l.87.5C228.22,183.78,227.24,185.54,226.29,187.28Zm429.16-5.6c-1-1.71-2-3.44-3.06-5.14l.86-.52c1,1.71,2.07,3.44,3.06,5.15Zm-423.18-4.79-.85-.52c1-1.71,2.12-3.42,3.19-5.1l.85.54C234.38,173.48,233.31,175.19,232.27,176.89Zm416.94-5.41c-1.08-1.68-2.19-3.35-3.3-5l.83-.56c1.11,1.63,2.22,3.31,3.31,5Zm-410.45-4.67-.83-.56c1.12-1.66,2.28-3.32,3.44-4.94l.81.58C241,163.51,239.87,165.16,238.76,166.81Zm403.73-5.21c-1.16-1.62-2.35-3.24-3.54-4.82l.8-.6c1.19,1.59,2.39,3.21,3.55,4.83Zm-396.77-4.55-.8-.6c1.2-1.58,2.43-3.19,3.68-4.76l.78.62C248.14,153.88,246.91,155.47,245.72,157.05Zm389.57-5c-1.23-1.56-2.5-3.12-3.77-4.65l.77-.64c1.27,1.53,2.55,3.1,3.79,4.67Zm-382.14-4.39-.77-.64c1.28-1.54,2.59-3.08,3.9-4.58l.75.65C255.73,144.59,254.42,146.13,253.15,147.66Zm374.49-4.81c-1.31-1.49-2.65-3-4-4.45l.74-.68c1.35,1.47,2.7,3,4,4.47ZM261,138.63l-.74-.68c1.35-1.47,2.73-2.94,4.12-4.38l.72.69C263.74,135.69,262.36,137.16,261,138.63ZM619.54,134c-1.38-1.44-2.8-2.87-4.2-4.26l.7-.71c1.41,1.39,2.83,2.83,4.22,4.27Zm-350.22-4-.71-.71c1.42-1.41,2.88-2.82,4.32-4.18l.69.72C272.18,127.2,270.73,128.6,269.32,130ZM611,125.62c-1.43-1.35-2.92-2.72-4.41-4.05l.67-.75c1.5,1.34,3,2.71,4.43,4.07Zm-333-3.84-.67-.74c1.48-1.33,3-2.67,4.51-4l.65.76C281,119.13,279.49,120.46,278,121.78Zm324.1-4.16c-1.52-1.3-3.07-2.59-4.6-3.84l.63-.77c1.54,1.25,3.1,2.55,4.62,3.85ZM287.1,114l-.63-.77c1.54-1.26,3.12-2.52,4.7-3.74l.61.79C290.21,111.49,288.64,112.74,287.1,114Zm305.73-3.93c-1.57-1.21-3.18-2.43-4.78-3.61l.59-.8c1.61,1.18,3.23,2.4,4.8,3.62Zm-296.28-3.4-.59-.81c1.6-1.18,3.24-2.36,4.87-3.5l.57.82C299.78,104.31,298.15,105.48,296.55,106.66ZM583.18,103c-1.64-1.14-3.31-2.28-5-3.38l.56-.83c1.65,1.1,3.33,2.24,5,3.39ZM306.34,99.8l-.55-.84c1.66-1.1,3.35-2.2,5-3.26l.53.84C309.68,97.6,308,98.69,306.34,99.8Zm266.85-3.47c-1.69-1.06-3.41-2.11-5.12-3.13l.52-.86c1.71,1,3.44,2.08,5.13,3.14ZM316.44,93.42l-.51-.86c1.71-1,3.46-2,5.19-3l.49.87C319.88,91.39,318.15,92.4,316.44,93.42ZM562.89,90.2c-1.74-1-3.51-2-5.27-2.88l.47-.88c1.76.93,3.54,1.9,5.29,2.89Zm-236-2.66-.47-.88c1.76-.94,3.55-1.87,5.33-2.76l.45.89C330.38,85.68,328.59,86.6,326.84,87.54Zm225.45-3c-1.78-.89-3.59-1.77-5.4-2.62l.43-.9c1.81.85,3.63,1.73,5.42,2.62ZM337.51,82.18l-.43-.91c1.81-.85,3.64-1.69,5.45-2.49l.41.91C341.13,80.49,339.31,81.33,337.51,82.18Zm203.92-2.71c-1.84-.81-3.7-1.61-5.52-2.35l.38-.93c1.83.75,3.69,1.55,5.54,2.36Zm-193-2.13-.38-.92c1.85-.77,3.73-1.52,5.58-2.23l.36.93C352.14,75.83,350.27,76.58,348.42,77.34ZM530.33,74.9c-1.88-.72-3.78-1.42-5.64-2.08l.33-.94c1.88.66,3.78,1.37,5.66,2.09ZM359.59,73l-.34-1c1.88-.67,3.79-1.32,5.69-2l.31,1C363.36,71.71,361.46,72.37,359.59,73ZM519,70.88c-1.91-.62-3.84-1.22-5.74-1.8l.29-1c1.91.57,3.85,1.18,5.76,1.8Zm-148-1.6-.29-1c1.92-.58,3.86-1.14,5.77-1.67l.27,1C374.8,68.14,372.87,68.7,371,69.28Zm136.56-1.85c-1.93-.52-3.87-1-5.8-1.51l.24-1c1.93.48,3.89,1,5.82,1.52Zm-125-1.34-.25-1c1.94-.49,3.91-1,5.85-1.39l.22,1C386.38,65.14,384.42,65.6,382.5,66.09Zm113.4-1.53c-1.94-.43-3.91-.84-5.86-1.23l.19-1c2,.39,3.94.8,5.88,1.23Zm-101.72-1.1-.2-1c1.95-.38,3.94-.76,5.91-1.1l.17,1C398.1,62.71,396.12,63.08,394.18,63.46Zm90-1.21c-2-.33-3.95-.65-5.91-.93l.14-1c2,.28,4,.6,5.94.94ZM406,61.41l-.14-1c2-.3,4-.57,5.95-.82l.13,1C409.93,60.85,407.94,61.12,406,61.41Zm66.33-.89c-2-.23-4-.45-5.95-.64l.1-1c2,.19,4,.41,6,.65Zm-54.45-.58-.09-1c2-.2,4-.37,6-.52l.08,1C421.83,59.57,419.83,59.75,417.85,59.94Zm42.54-.57c-2-.14-4-.26-6-.35l0-1c2,.09,4,.21,6,.36Zm-30.6-.32-.05-1c2-.1,4-.18,6-.23l0,1C433.79,58.87,431.77,59,429.79,59.05Zm18.64-.25c-2,0-4-.07-6-.07h-.68v-1h.68c2,0,4,0,6,.07Z" fill="#000000" data-secondary="true"/>
<path d="M642.26,452.3a3.13,3.13,0,0,1-3.12-3.14,3.23,3.23,0,0,1,.37-1.46l10.21-19.09a3.13,3.13,0,0,1,5.51,2.95L645,450.65A3.11,3.11,0,0,1,642.26,452.3Z" fill="#000000" data-secondary="true"/>
<path d="M681.77,452.3a3.12,3.12,0,0,1-2.76-1.65L668.8,431.56a3.13,3.13,0,0,1,5.34-3.26,3.07,3.07,0,0,1,.17.31l10.21,19.09a3.13,3.13,0,0,1-2.75,4.6Z" fill="#000000" data-secondary="true"/>
<circle cx="662.01" cy="411.45" r="27.96" fill="#15008a" data-primary="true"/>
<circle cx="662.01" cy="411.45" r="23.96" fill="#fff"/>
<path d="M666.6,421.36l-4.75-9.51c-.16-.09-.16-.31-.16-.4V410.2c.08-3.25.28-11.66.39-16.51h.64s-.1,4.46-.21,8.93c0,2.23-.11,4.47-.15,6.14a16.64,16.64,0,0,1-.09,2.58l4.85,9.71Z" fill="#000000" data-secondary="true"/>
<path d="M677.8,382.16a15.51,15.51,0,0,0-30.71,0Z" fill="#15008a" data-primary="true"/>
<circle cx="662.01" cy="411.45" r="1.78" fill="#000000" data-secondary="true"/>
<path d="M710.43,270.47a30.8,30.8,0,0,1-30.8,30.82h0a28.62,28.62,0,0,1-5.14-.44,30.81,30.81,0,1,1,35.95-30.38Z" fill="#15008a" data-primary="true"/>
<path d="M674.53,301.17l-.11-.63a30.36,30.36,0,0,0,25.43-30.07c0-14.2-10-27.35-23.31-30.59l.15-.62c13.56,3.3,23.8,16.72,23.8,31.21A31,31,0,0,1,674.53,301.17Z" fill="#000000" data-secondary="true"/>
<path d="M697.12,269.91c-6.45,0-13.58-4.11-19.5-11.34-6.71-8.2-14.51-9.95-19.88-10V248c5.51,0,13.51,1.82,20.38,10.22,6.36,7.77,14.45,12,21.12,10.94,4.43-.68,7.9-3.64,9.78-8.34l.59.23c-2,4.92-5.62,8-10.27,8.74A13.77,13.77,0,0,1,697.12,269.91Z" fill="#000000" data-secondary="true"/>
<path d="M683.5,281a70.49,70.49,0,0,1-11.23-1,103.2,103.2,0,0,1-23.46-6.93l.26-.58c.42.19,41.88,18.84,61.13-2.28l.47.43C704.45,277.51,695.17,281,683.5,281Z" fill="#000000" data-secondary="true"/>
<path d="M664.89,295a33.1,33.1,0,0,1-4.22-.27l.08-.63a30.24,30.24,0,0,0,15.73-2.1c11.77-5.15,19.7-6.41,23.58-3.75a5.39,5.39,0,0,1,2.55,3.51l-.63.1a4.77,4.77,0,0,0-2.28-3.08c-3.68-2.53-11.41-1.25-23,3.8A29.61,29.61,0,0,1,664.89,295Z" fill="#000000" data-secondary="true"/>
<path d="M650.33,148.31c0,13.72-11.22,28.28-22,28.28-2.63,0-9.48,0-11.92-.93-13.33-5.14-18.47-17.9-18.47-29,0-5.77,1.72-12,6.28-15.88,6-5.09,12.72-1.89,19.74-1.89,6.1,0,14.67-2.5,19.33.94C649.19,134.18,650.33,141.49,650.33,148.31Z" fill="#15008a" data-primary="true"/>
<path d="M643.13,139.09c-.89,1.54-3.56,1.65-6,.26s-3.64-3.76-2.76-5.29,3.56-1.65,6-.26S644,137.56,643.13,139.09Z" opacity="0.2" style="isolation:isolate"/>
<polygon points="622.57 131.02 623.03 129.93 629.57 114.69 625.23 114.02 620.9 129.35 622.57 131.02" fill="#000000" data-secondary="true"/>
<path d="M623.57,120.69s-3-6.67-7.34-7.67-16.33,4.67-16.33,4.67,6,4.33,10.67,5.66S623.57,120.69,623.57,120.69Z" fill="#15008a" data-primary="true"/>
<path d="M458.42,103.94c-1-5.43-2.33-19.6-1.16-24.84a35.52,35.52,0,0,0,.77-9.7v-19a16.3,16.3,0,0,0-.19-7.76c-1.16-4.07-10.09-12.81-10.09-12.81v-3.1h-.57l-2.45-.1v-.06h-1.44v.06l-2.46.1h-.57v3.1s-8.92,8.74-10.09,12.81A16.3,16.3,0,0,0,430,50.4v19a35.14,35.14,0,0,0,.78,9.7c1.16,5.24-.2,19.41-1.17,24.84s-.58,9.51,2.52,11.06c2.59,1.3,9.63.43,11.9.11,2.27.32,9.3,1.19,11.89-.11C459,113.45,459.39,109.37,458.42,103.94Z" fill="#fff"/>
<path d="M436.79,116a12,12,0,0,1-4.82-.72c-3-1.48-3.82-5.11-2.69-11.4,1-5.86,2.28-19.69,1.16-24.72a36.66,36.66,0,0,1-.78-9.8v-19a16.33,16.33,0,0,1,.21-7.89C431,38.61,438.92,30.69,440,29.68V26.41l.86-.05,2.49-.16h.72l1-.05v.09l3,.14v3.27c1,1,9,8.93,10.08,12.85a16.33,16.33,0,0,1,.2,7.89v19a35.64,35.64,0,0,1-.78,9.77c-1.12,5,.12,18.86,1.17,24.72,1.12,6.29.27,9.92-2.7,11.4-2.6,1.3-9.24.54-12,.14A54.93,54.93,0,0,1,436.79,116Zm3.79-89v3l-.09.09c-.09.09-8.88,8.72-10,12.67a16.1,16.1,0,0,0-.19,7.59V69.4a35.41,35.41,0,0,0,.77,9.63c1.2,5.43-.27,20-1.16,25-1.07,6-.32,9.38,2.35,10.72,2.52,1.26,9.59.38,11.7.07h.09c2.11.3,9.19,1.19,11.71-.07,2.67-1.34,3.42-4.75,2.35-10.72-.9-5-2.37-19.54-1.16-25a35.59,35.59,0,0,0,.77-9.6V50.3a16.1,16.1,0,0,0-.2-7.59c-1.12-4-9.91-12.58-10-12.67l-.1-.09V27h-.27l-2.75-.11h-.91l-.21.05Z" fill="#000000" data-secondary="true"/>
<path d="M454.64,80.15a32.34,32.34,0,0,0,.62-8.27V62.65H432.75v9.23a32.34,32.34,0,0,0,.62,8.27c.94,4.46-.15,16.53-.93,21.16s-.47,8.11,2,9.43c2.08,1.1,7.73.37,9.55.09,1.82.28,7.46,1,9.54-.09,2.49-1.32,2.8-4.79,2-9.43S453.71,84.61,454.64,80.15Z" fill="#15008a" data-primary="true"/>
<rect x="439.29" y="22.25" width="9.31" height="5.24" fill="#000000" data-secondary="true"/>
<path d="M247.44,142.09h6.78l7.38-13.84,7.48,16.46,1.28-3.39h9.38l10-22.68,6.43,21.12h11.74a19.94,19.94,0,0,0-1-27.1h0a20,20,0,0,0-28.24,0l-2.06,2.06-2.07-2.07a20,20,0,0,0-28.24,28.24Z" fill="#15008a" data-primary="true"/>
<polygon points="293.56 143.26 289.12 128.67 282.02 144.81 272.78 144.81 269.39 153.84 261.35 136.14 256.31 145.59 250.94 145.59 276.56 171.21 304.51 143.26 293.56 143.26" fill="#15008a" data-primary="true"/>
<path d="M183.06,260.8s-1.26-4.2-5-5-11.75.42-13-4.19,4.62-3.36,3.36-7.14-10.5-3.78-12.6-10.92.84-14.69,6.3-12.17,8,13,10.08,17.21,1.68-4.2,7.55-5,11.76,3.78,8,9.66-3.63,10.45-2.94,13.43c.48,2.09.6,1.93.6,1.93Z" fill="#15008a" data-primary="true"/>
<path d="M161.8,232.36c-2.22-3.66-2.48-5.63-2.49-5.71l.63-.08a16.61,16.61,0,0,0,2.41,5.46Z" fill="#000000" data-secondary="true"/>
<path d="M184.12,259.88a22.34,22.34,0,0,0-5.22-9.67,62.26,62.26,0,0,0-6.1-5.72,57.12,57.12,0,0,1-8.52-8.51c-.36-.49-.7-.95-1-1.4l.52-.36c.31.44.65.89,1,1.37a55.4,55.4,0,0,0,8.43,8.41,65.93,65.93,0,0,1,6.16,5.78,22.58,22.58,0,0,1,5.37,10Z" fill="#000000" data-secondary="true"/>
<path d="M196.23,254S177,257.8,177,276s51.8,53.72,55.64,47-15-46.47-19.81-55.1S202.94,253,196.23,254Z" fill="#e6e7e8"/>
<path d="M182.64,289.35s6.72-10.08,13-13" fill="none" stroke="#d1d3d4" stroke-miterlimit="10"/>
<path d="M216.23,279.27a39.63,39.63,0,0,0-12.6,8.4" fill="none" stroke="#d1d3d4" stroke-miterlimit="10"/>
<path d="M207,310.34s2.94-7.56,10.07-11.34" fill="none" stroke="#d1d3d4" stroke-miterlimit="10"/>
<line x1="205.73" y1="270.46" x2="201.53" y2="272.98" fill="none" stroke="#d1d3d4" stroke-miterlimit="10"/>
<line x1="222.94" y1="296.06" x2="220" y2="296.9" fill="none" stroke="#d1d3d4" stroke-miterlimit="10"/>
<circle cx="216.25" cy="410.26" r="31.25" fill="#15008a" data-primary="true"/>
<path d="M224.39,388.58c0,5.34-4.86,16.85-8.14,16.85s-8.14-11.51-8.14-16.85,4.86-6.92,8.14-6.92S224.39,383.24,224.39,388.58Z" fill="#fff" opacity="0.5" style="isolation:isolate"/>
<path d="M201.54,392.37c4.63,2.67,12.65,11.47,11,14.31s-14.52,2.46-19.15-.21-3.56-7.67-1.92-10.51S196.92,389.7,201.54,392.37Z" fill="#fff" opacity="0.5" style="isolation:isolate"/>
<path d="M193.4,414.05c4.63-2.67,17.85-5,19.49-2.17s-6.72,13.6-11.35,16.27-8.42-.75-10.06-3.59S188.78,416.72,193.4,414.05Z" fill="#fff" opacity="0.5" style="isolation:isolate"/>
<path d="M208.11,431.94c0-5.34,4.86-18.36,8.14-18.36s8.14,13,8.14,18.36-4.86,6.92-8.14,6.92S208.11,437.28,208.11,431.94Z" fill="#fff" opacity="0.5" style="isolation:isolate"/>
<path d="M231,428.15c-4.62-2.67-12.23-12.75-10.59-15.59s14.11-1.18,18.73,1.49,3.56,7.67,1.93,10.51S235.58,430.82,231,428.15Z" fill="#fff" opacity="0.5" style="isolation:isolate"/>
<path d="M239.09,406.47c-4.62,2.67-17.09,3.84-18.73,1s6-12.43,10.59-15.1,8.43.75,10.07,3.59S243.72,403.8,239.09,406.47Z" fill="#fff" opacity="0.5" style="isolation:isolate"/>
<path d="M690.23,549.16s-9.47,35.92-26.8,53.43c0,0-5.09,6.2-6.69,4.89-.49-.4-.67-1.48-.27-3.65a50.94,50.94,0,0,0,2.93-15.94,23.59,23.59,0,0,0-2.24-9.77c-1.54-3.39-3.91-10.07-1-14.61L670,544.83s-1.35-8.73,7.58-3c0,0,7.94,1.57,11.26,4.6A3.84,3.84,0,0,1,690.23,549.16Z" fill="#15008a" data-primary="true"/>
<path d="M695.51,552.73c-7.51,27.07-25.65,50.36-30.62,56.38a6.48,6.48,0,0,1-4.45,2.43c-3.91.3-3.8-3.87-3.8-3.87l.1-.19c1.6,1.31,6.69-4.89,6.69-4.89,17.33-17.51,26.8-53.43,26.8-53.43a3.81,3.81,0,0,0-1.43-2.73,13.71,13.71,0,0,1,5.16,2.14A3.8,3.8,0,0,1,695.51,552.73Z" fill="#000000" data-secondary="true"/>
<path d="M656.17,563.51C644.39,547.7,624,535.06,624,535.06c-25-15.52-52-24.72-52-24.72-15.51-2-26.75-31.88-26.75-31.88,8.55-1.58,15.54-3.26,21.21-4.9,4.11-1.18,7.52-2.36,10.33-3.45,1-.37,1.9-.74,2.77-1.12,1.49-.64,2.77-1.24,3.86-1.78.31-.15.6-.3.89-.47.75-.39,1.39-.76,1.93-1.09s.9-.56,1.31-.83a16.07,16.07,0,0,0,1.34-1v.09c-2.91,21.73,5.82,21.75,5.82,21.75,22.42,6.89,31.61,16.67,31.61,16.67C637,511.81,670,544.85,670,544.85,676.58,559.2,656.17,563.51,656.17,563.51Z" fill="#f9b499"/>
<path d="M656.17,563.51c6.5-4.07,8.16-7.21,8.16-7.21,6.79-8.93-25.56-39-25.56-39-26.63-25-48.43-25.2-48.43-25.2-17.16.36-8.4-8.93-8.4-8.93,3.22-4.48-1.61-5.36-1.61-5.36-14.26.3-14.22-3.22-13.89-4.29a1.73,1.73,0,0,1,.14-.31,95.89,95.89,0,0,0,10.19-3.14c1-.37,1.9-.74,2.77-1.12,1.44-.6,2.73-1.2,3.86-1.78.31-.15.6-.3.89-.47.71-.37,1.35-.73,1.93-1.09s.9-.56,1.31-.83.94-.64,1.33-.93c-2.91,21.73,5.82,21.75,5.82,21.75,22.42,6.89,31.61,16.67,31.61,16.67,10.63,9.48,43.67,42.52,43.67,42.52C676.58,559.2,656.17,563.51,656.17,563.51Z" fill="#f7a48b"/>
<path d="M566.57,473.24s16.27-3.35,24.79-11.56c0,0-3.86-29.4-7.76-43.88a47.18,47.18,0,0,0-3.53,10l-10.48,37.08Z" fill="#000000" data-secondary="true"/>
<path d="M566.57,473.24s16.27-3.35,24.79-11.56c0,0-3.86-29.4-7.76-43.88a47.18,47.18,0,0,0-3.53,10l-10.48,37.08Z" opacity="0.2" style="isolation:isolate"/>
<path d="M501.49,390.05s1,36.13-.54,56.19a51.81,51.81,0,0,1-3.09,13.29c-1.13,3.13-1.3,7.79,5.79,10.36,0,0,48,14.51,59.32,9.78,0,0,3.78-4.74,6.62-14.83l10.48-37.08a75.6,75.6,0,0,1,3.53-10c2.37-5.42,6-16.21,3-25.6l-3.09-14.44L557,362.3Z" fill="#000000" data-secondary="true"/>
<path d="M473.08,284.25l12,4.39s4.29-.81,6.79,14.2c0,0,4.65,73.63,9.65,87.21,0,0,75.77-13.22,85.07,2.15,0,0,1.78-8.94-3.58-27.17,0,0-7.15-72.55-5-107.94l22.16,11.08s8.22-13.94,20-11.08a11.6,11.6,0,0,1,9.65,2.15s-2.85-8.94-15-17.88l-34.67-31.09s-6.43-7.86-25-7.51l-17.57-3.41H518.65l-16.06,21.7s-16.11,1.37-21.11,27.46Z" fill="#15008a" data-primary="true"/>
<path d="M553.46,243.06l24.52,14a613.85,613.85,0,0,0,3.32,89L583,365s5,16.23,3.58,27.17c0,0-2.91-10.51-47.9-6.7l-17.91,1.78s22.53-18,12-34c0,0-14.62-19,8.47-43.55,0,0,1.14-9.65,12.56-17a21.09,21.09,0,0,0,10.65-21.43,22.32,22.32,0,0,0-1-4.35C561.75,261.59,556.86,249,553.46,243.06Z" opacity="0.2" style="isolation:isolate"/>
<path d="M532.13,566.08s9,0,8.42,8c0,0-12.17,62.23-26.82,73,0,0-6.92,5.35-6.92-4.51Z" fill="#000000" data-secondary="true"/>
<path d="M505.22,614.82c-3.2-5.22-9.43-17.57-1.11-23.58,0,0,9.72-3.5,11.19-19.73v-9.58s18.06,3,18.06,5.25c0,0,4.43,35.66-24.54,76.2a1.15,1.15,0,0,1-1.62.08,1.13,1.13,0,0,1-.38-.86V620.54A11,11,0,0,0,505.22,614.82Z" fill="#15008a" data-primary="true"/>
<path d="M330.45,305.62l-17.2-17s-25.67-4.89-19.14-15.86c0,0-1.86-5.6,2.1-6.3,0,0-1.86-5.83,3-5.83,0,0-4.67-4.67,3-4.44,0,0,3.77-.93,9.47,3.27a27.8,27.8,0,0,1,8.46,14.17,4.93,4.93,0,0,0,1.19,2.14l8.1,8.46S329.9,299.46,330.45,305.62Z" fill="#f9b499"/>
<path d="M313.25,288.64s4.43-.92,5.83-10.49a39.47,39.47,0,0,1,.37,9.65,5.74,5.74,0,0,0,1.44,4.48,20.86,20.86,0,0,0,2.61,2.45,1.61,1.61,0,0,0,2.26-.3,1.57,1.57,0,0,0,.33-1V280.69l3.41,3.56s.15,11,.95,21.37Z" fill="#f7a48b"/>
<path d="M296.21,278.15s11,6.61,15.54,2.72c0,0,6.31-5.24-5.68-15.6Z" fill="#f7a48b"/>
<path d="M402.1,168.18A23.43,23.43,0,0,1,419,187.74a16.36,16.36,0,0,1,.1,4.25c-.57,5.62-1,24.57,18.91,27.58,0,0-21.4,5.25-37-4a28.34,28.34,0,0,1-11.64-35.14l.12-.28A60.17,60.17,0,0,1,402.1,168.18Z" fill="#000000" data-secondary="true"/>
<path d="M344.77,192.71s16.63,15-4.45,36.65l4.4-1.68s13.21-1.56,35.77-27.3c0,0,.6-.94,4.75-2.52,0,0-5.59-1.47-7.67-9.15l4.08-13.16-6.83-13.72Z" fill="#f9b499"/>
<path d="M344.77,192.71s5.1,4.2,6.16,13.32c0,0,11.38-16.26,12.91-28.3C363.84,177.73,357.13,191.91,344.77,192.71Z" fill="#f7a48b"/>
<ellipse cx="346.85" cy="161.85" rx="31.21" ry="21.48" transform="translate(122.82 472.18) rotate(-79.19)" fill="#f9b499"/>
<path d="M335.59,137.78s3-17.66,22.2-20.44a48.68,48.68,0,0,1,21.47,1.08,35.33,35.33,0,0,1,25.17,29.8,30.82,30.82,0,0,1-3,17.67s-11.16,5.21-14.56,14.48c0,0-4,12.67-9.27,8.34,0,0-2.71,1.63-2.28-20.5l-6.61-12.27s-3.78,3.1-4.48,5.89a13.25,13.25,0,0,1-.51-5.56,8.56,8.56,0,0,0-4-7.94c-5.07-3.18-12.9-8.26-17.47-12.16a3.85,3.85,0,0,0-5,0A18,18,0,0,0,335.59,137.78Z" fill="#000000" data-secondary="true"/>
<path d="M380.49,247.83s13.31,4.16,18.46,0c0,0,1.22-5.1-9.23-5.1,0,0-4.82.47-5.52-2.34,0,0,8.33,1.87,11-5.39,0,0,7.81,10.27,15.45,12.86C410.61,247.86,393,257.85,380.49,247.83Z" fill="none" stroke="#ed1c24" stroke-miterlimit="10" stroke-width="0.25"/>
<path d="M398.28,199.43s-12.79-4.74-17.79.95c0,0-20.44,23.58-35.77,27.3a16.38,16.38,0,0,0-7.77,4.16c-7.45,7.41-21.07,25.46-7.46,48.72,0,0-.46,38.27,6.83,56.26l1.6,15.26s16.85-16.85,41.45-17.08l22.78-.23s-11.16-32-2.28-50.52c0,0,15.29-25.79,14.59-36.15Z" fill="#15008a" data-primary="true"/>
<path d="M421.37,493.28c-7.6,12.86-26,22.51-26,22.51-11.1-8.49-22.21-38.88-22.21-38.88-1.74,4.58-5.19,9.26-8,12.59a17.94,17.94,0,0,0-4.27,11.58v.08c-12.87,2.93-30.32-4.68-30.32-4.68-10.52-3.89-6.86-13.24-6.86-13.24,11.76-32.1,16.63-84.52,18.06-103.52a27.57,27.57,0,0,0-1.36-11.15c-2.44-7-2.47-16.49-2.47-16.49C360,332.8,379.38,335,379.38,335l22.77-.23c28.46,31.13,19.22,62.16,14.08,73.84a24.58,24.58,0,0,0-2,11.6l3.91,54.94A49.29,49.29,0,0,1,421.85,487C422.54,491.75,421.37,493.28,421.37,493.28Z" fill="#000000" data-secondary="true"/>
<path d="M346.83,501.17S345.08,495,355.31,486c0,0,24.62-40.86,31-72.75a31.55,31.55,0,0,1,3.73-9.88c3.37-5.73,8.88-16,11.59-26.37a21.09,21.09,0,0,0-23.28-26.43A54,54,0,0,0,365,354.41s-14.33,7-26.61,4.36a46.78,46.78,0,0,1-.43-6.69S356.6,335.23,379.37,335l22.78-.23s33,29.26,14,73.56a24.78,24.78,0,0,0-1.95,11.53l1.24,17.41s-35.17,31.3-18.5,53.37c0,0,8.07,11.78,15.07,13.49a90.07,90.07,0,0,1-16.68,11.65s-9.06-4.87-22.22-38.88a48.43,48.43,0,0,1-8,12.6s-4,3.48-4.28,11.67A30.11,30.11,0,0,1,346.83,501.17Z" opacity="0.2" style="isolation:isolate"/>
<path d="M369.39,336.13c.45,1.69.81,3.41,1.11,5.14l.43,2.59.33,2.61q.63,5.22.82,10.48a160,160,0,0,1-.56,21,217.58,217.58,0,0,1-7.78,41.27c-.88,3.4-2,6.71-3.13,10l-1.65,5c-.58,1.66-1.24,3.28-1.86,4.92l-1.88,4.92c-.63,1.63-1.22,3.28-1.94,4.88l-4.18,9.65-16.68,38.6L349,458.58l4.14-9.66c.72-1.6,1.3-3.25,1.93-4.89l1.87-4.91c.61-1.64,1.27-3.27,1.84-4.92l1.63-5c1.08-3.33,2.23-6.64,3.1-10A218,218,0,0,0,371.4,378a161.76,161.76,0,0,0,.61-21c-.11-3.5-.37-7-.79-10.48l-.32-2.61-.42-2.59C370.19,339.54,369.84,337.82,369.39,336.13Z" fill="#fff"/>
<path d="M383.12,335a153.41,153.41,0,0,1,1.24,21.53l-.06,5.4c-.05,1.8-.17,3.59-.26,5.39s-.14,3.59-.3,5.39l-.49,5.37a306.13,306.13,0,0,1-7.33,42.51L373,431l-.72,2.6-.37,1.3-.42,1.28-1.68,5.13-1.69,5.12-.85,2.57-.42,1.28-.48,1.26-3.87,10.07-2,5-2.19,4.93L354,481.41c-.69,1.66-1.53,3.25-2.34,4.86l-2.43,4.82-4.87,9.63,4.84-9.65,2.42-4.82c.8-1.61,1.64-3.2,2.33-4.87l4.34-9.88,2.17-4.93,1.93-5,3.84-10.08.48-1.26.42-1.29.83-2.56,1.68-5.13,1.67-5.13.42-1.28.35-1.3.72-2.6,2.85-10.41A303.3,303.3,0,0,0,383.12,378l.51-5.37c.17-1.79.21-3.59.32-5.39s.21-3.59.27-5.38l.08-5.4A155.52,155.52,0,0,0,383.12,335Z" fill="#fff"/>
<path d="M360.05,531.45c2.19,37.35-15.65,73.6-15.65,73.6-5.4,14.65-2.66,23.8-2.66,23.8-24.17,16.48-27.48-19.41-27.48-19.41,12.09-10.61,8.82-91.54,8.82-91.54a161.1,161.1,0,0,1,0-29.3c1.28,6.19,7.47,7.88,7.47,7.88a80.59,80.59,0,0,0,9.8,3.3c15.84,3.5,20.52,1.38,20.52,1.38Z" fill="#f9b499"/>
<path d="M343.17,645.09c-.73,5.24-7.5,5.1-12.85,4.13a29.67,29.67,0,0,1-8.21-2.66c-7.56-3.85-21.49-3.31-21.49-3.31-28.85,3.67-38.47-18.83-38.47-18.83-1.92-3.33-1.81-5.36-.76-6.56,2.29-2.68,9.15-1.42,9.15-1.42,15.35,1.43,36-5.53,36-5.53,7.57-5.11,7.72-1.47,7.72-1.47s3.31,35.89,27.48,19.41Z" fill="#15008a" data-primary="true"/>
<path d="M343.17,645.09c-.82,23.74-26.8,8.78-26.8,8.78a36.25,36.25,0,0,0-21.89-5.32c-28.44-2.23-34.66-22.08-34.66-22.08-4.6-9,1.55-8.61,1.55-8.61h0c-1.05,1.2-1.16,3.23.76,6.56,0,0,9.62,22.5,38.47,18.83,0,0,13.93-.54,21.49,3.31a29.67,29.67,0,0,0,8.21,2.66C335.67,650.19,342.44,650.33,343.17,645.09Z" fill="#000000" data-secondary="true"/>
<path d="M515.3,571.51c-.66,14.81-11.19,19.73-11.19,19.73l-28.94-23c-18-14.84-46-33.44-59.44-42.14a58.93,58.93,0,0,0-12.81-6.32c-5.39-1.86-7.57-4-7.57-4s18.42-9.65,26-22.51c0,0,1.17-1.53.48-6.28,26.93,9.86,53.65,38.8,53.65,38.8Z" fill="#f9b499"/>
<path d="M413.57,502.72s16.87-2.9,27.07,7.95l73.61,67.4a49.94,49.94,0,0,0,1-6.56L475.5,525.8s-25.9-28.41-53.65-38.8c0,0,1.06,3.9-.48,6.28A39.12,39.12,0,0,1,413.57,502.72Z" fill="#f7a48b"/>
<path d="M497.74,192s5.63,6.69,6.22,22.65a13,13,0,0,1-3.63,9.58c-3.37,3.44-7.75,9.34-6.87,16.16a3,3,0,0,0,3.32,2.64,3.06,3.06,0,0,0,.79-.2c3.4-1.39,9-5.18,14.45-15.52,0,0,14-26.68,25.51-28l-4.66-9.74-1.21-18.52Z" fill="#f9b499"/>
<path d="M497.74,192s3.56,2.91,5.5,15.06c0,0,10.4-10.94,16.9-18.24Z" fill="#f7a48b"/>
<path d="M487.5,290.1s-1.34-6.06,1.18-19.46" fill="none" stroke="#000" stroke-miterlimit="10" opacity="0.2" style="isolation:isolate"/>
<path d="M556.33,308.25A267.28,267.28,0,0,1,580,292.34s19.06-19.1,20.11-24.17c0,0,8.34-14,20-11.08,0,0,5.68-1.72,9.65,2.15,0,0,13,19.74,0,26.14,0,0-32.08,22.39-55.41,33.94a42.61,42.61,0,0,0-13,10c-4.44,5-11.52,11.58-19.89,14.32,0,0-6.29,3.94-6.29,0,0,0-7.75,3.65-5.7-2.34,0,0-9.16-.34-4.24-7.46,0,0-4.35-3.37,2.34-9.35,0,0,6.58-12.43,14.62-12.13l8.3-1.55A14,14,0,0,0,556.33,308.25Z" fill="#f9b499"/>
<path d="M489.64,645.74a6,6,0,0,1-.2,1.64,5.8,5.8,0,0,1-4.76,4.38c-5.53.76-13.49-2-13.49-2-10.72-4.34-30.13-3.32-30.13-3.32-20.95-1.27-27.49-22-27.49-22a.06.06,0,0,1,0-.06,9.11,9.11,0,0,1,0-1.28h0c1.63-3.74,17.79-2.49,17.79-2.49,16.08.26,24-4.33,24-4.33,11.2-6.13,7.43,3.06,7.43,3.06l23.75,14C489.06,636.79,489.58,642.39,489.64,645.74Z" fill="#15008a" data-primary="true"/>
<path d="M489.64,647.43c-1.18,23.81-26.88,8.18-26.88,8.18-5.91-3.77-18.74-5.72-25.87-6.55a26.52,26.52,0,0,1-17.12-8.82,25.8,25.8,0,0,1-6.22-15.85.06.06,0,0,0,0,.06s6.54,20.69,27.49,22c0,0,19.41-1,30.13,3.32,0,0,8,2.79,13.49,2a5.8,5.8,0,0,0,4.76-4.38Z" fill="#000000" data-secondary="true"/>
<ellipse cx="371.04" cy="162.88" rx="9.56" ry="6.62" transform="translate(29.28 380.6) rotate(-56.2)" fill="#f9b499"/>
<path d="M387.56,178.68a1.38,1.38,0,0,0,1.18,1.56,1.41,1.41,0,0,0,.73-.1s9.95-10.07,12.63-12c0,0,1.33-1.19.2-2.32a1.47,1.47,0,0,0-1.74-.22C398.22,166.89,391.34,171.07,387.56,178.68Z" fill="#15008a" data-primary="true"/>
<path d="M415.54,248.66a6.07,6.07,0,0,0-5.92-.44c-8.11,3.76-30.43,11.4-37-14.5,0,0-5.86-19.54,19.89-32.64a15.84,15.84,0,0,1,12.51-.79c6.83,2.46,17.37,9,28,26.26a17.05,17.05,0,0,0,3.67,4.23c8.1,6.67,35.72,30.77,36.27,49.72a6.48,6.48,0,0,1-4.26,6.21c-5.61,2.1-18.68,5.49-47.59,7.77,0,0-17.94,0-25.92,5,0,0-14.82,8.06-28,5.76a2.09,2.09,0,0,1-1.74-2.39s0-.07,0-.1a4.25,4.25,0,0,1,.7-1.51s-6.72,1.46-6.13-3.8c0,0-7.61,2.63-5.56-4.39,0,0-3.33-.62-3.14-3.45a3.85,3.85,0,0,1,1.26-2.51l3-2.81s-7.27,1.76-7.27-3.21a70.2,70.2,0,0,0,10-1.53,36.38,36.38,0,0,1,27.11,3.28s38.51-2.9,56.19-15.27a.93.93,0,0,0,.26-1.29,1.07,1.07,0,0,0-.26-.26Z" fill="#f9b499"/>
<path d="M437.28,231.3s22.33,27.12,18.81,40c0,0-3.74,15.35-27.4,18.8,0,0-25.38,0-33.53,9.35,0,0,5-3.6,15.45-4.28,0,0,41.83-2.06,58.36-8.6a6.55,6.55,0,0,0,4.08-6.69c-.32-3.79-2-9.87-7.63-18.7C465.42,261.18,451.49,241.55,437.28,231.3Z" fill="#f7a48b"/>
<path d="M365,284.25a40.83,40.83,0,0,1-5,4.75,39.94,39.94,0,0,1-5.58,4A46.81,46.81,0,0,1,365,284.25Z" fill="#f7a48b"/>
<path d="M360,297.41a35.7,35.7,0,0,1,9.35-7.31,31.24,31.24,0,0,1-4.37,4A31.9,31.9,0,0,1,360,297.41Z" fill="#f7a48b"/>
<path d="M366.12,301.21a17.43,17.43,0,0,1,6.53-5.07A17.08,17.08,0,0,1,366.12,301.21Z" fill="#f7a48b"/>
<path d="M293.4,278.15s9.16,2.22,8.41-1.87c0,0,4.55-.77,2.57-4.66,0,0,3.56.59,4.19-2.11a2.87,2.87,0,0,0-.89-2.75,32.75,32.75,0,0,0-8.43-6.11s-4.67-.64-3,5.83c0,0-4.2.93-2.1,6.3C294.11,272.78,292,275.82,293.4,278.15Z" fill="#f9b499"/>
<path d="M301.81,276.28a13.17,13.17,0,0,1-6.62-3.06,11.46,11.46,0,0,1,3.52,1.06A11.92,11.92,0,0,1,301.81,276.28Z" fill="#f7a48b"/>
<path d="M304.38,271.62a16.55,16.55,0,0,1-3.85-1.76,15.71,15.71,0,0,1-3.34-2.62A17.8,17.8,0,0,1,304.38,271.62Z" fill="#f7a48b"/>
<path d="M545.73,479.73c-.54,7.72-12.13,18.83-12.13,18.83-5.77,6.38-6.73,15.08-6.73,15.08L522,555.24c-5,27-12.59,33.75-16.05,35.44a10.14,10.14,0,0,0-5.56,6.55,17.48,17.48,0,0,0-.44,5.63L486.5,633.38c-14.06,7.91-21.51-8.18-23.31-12.83a2.06,2.06,0,0,1,.34-2.09c17.18-20.39,28.29-90.44,25.54-100.75-2.81-10.48,3.82-25.29,3.82-25.29,3.71-7.41,5.37-22.62,5.66-25.41v-.45c3.4,3.27,5.06,3.32,5.06,3.32C522.58,475.69,545.73,479.73,545.73,479.73Z" fill="#f9b499"/>
<path d="M545.73,479.73c-.54,7.72-12.13,18.83-12.13,18.83-5.77,6.38-6.73,15.08-6.73,15.08L522,555.24c-5.22,33.23-16,35.44-16,35.44-7.29,3.12-6,12.18-6,12.18l-13.45,30.52c-16.34,9.2-23.75-14-23.75-14,12,11.26,19.15,7.52,19.15,7.52,19.08-26.36,32.82-83.33,37.28-103.67a26.82,26.82,0,0,0-.27-12.84c-3.5-12.74,1.83-16.13,1.83-16.13,14.1-14.08-10.69-17.49-10.69-17.49-11-1.48-11.56-8-11.5-9.72V467a2.54,2.54,0,0,1,0-.39c3.4,3.27,5.06,3.32,5.06,3.32C522.58,475.69,545.73,479.73,545.73,479.73Z" fill="#f7a48b"/>
<ellipse cx="509.71" cy="161.63" rx="33.04" ry="23.67" transform="translate(242.08 624.55) rotate(-77.56)" fill="#f9b499"/>
<path d="M521.66,140.82s-32,.93-33-18.36c0,0,3.11,5.91,7.78,6.84A12.31,12.31,0,0,1,493,119s6.22,9.64,20.85,5.29c0,0,32.11-9.09,39.24,20.87a11.86,11.86,0,0,1,.32,2.65c.11,6.43-.71,32.73-20.58,41.76l-1.21-18.52-8.28-9.21s-2.9,2.53-2.31-7.55Z" fill="#000000" data-secondary="true"/>
<ellipse cx="529.14" cy="164.27" rx="8.79" ry="6.22" transform="translate(174.8 590.21) rotate(-67.49)" fill="#f9b499"/>
<path d="M452.14,297.41c2,.72,28.55,28,40.41,15.77l-.71-10.34s-1-12.07-6.79-14.2L479,286.42l-10,.15a5,5,0,0,0,2-5.53,4.83,4.83,0,0,0-2.05-5.85s-19.88-10.08-21.19,1.32a7.77,7.77,0,0,0-1.32,8.18s-2.78,5,1.75,6.73C448.12,291.42,446.36,295.36,452.14,297.41Z" fill="#f9b499"/>
<path d="M469,280.37s-10.68-5.47-21.35-3.86" fill="none" stroke="#f7a48b" stroke-miterlimit="10"/>
<path d="M467.56,285.28s-14.42-5.07-21.47-1.44" fill="none" stroke="#f7a48b" stroke-miterlimit="10"/>
<path d="M448.12,291.42s1.9-6.58,13.74-3.51" fill="none" stroke="#f7a48b" stroke-miterlimit="10"/>
<path d="M455,294.34s12.65-4.18,15.29-9.06c0,0-1.29,8.68-9.36,10.32a1,1,0,0,0-.78,1.18l0,.12.82,2.55Z" fill="#f7a48b"/>
<line x1="525.3" y1="333.8" x2="537.53" y2="323.62" fill="none" stroke="#f7a48b" stroke-miterlimit="10"/>
<line x1="529.54" y1="341.26" x2="541.51" y2="330.21" fill="none" stroke="#f7a48b" stroke-miterlimit="10"/>
<line x1="535.24" y1="343.6" x2="544.42" y2="335.74" fill="none" stroke="#f7a48b" stroke-miterlimit="10"/>
</svg>